<?xml version="1.0" encoding="UTF-8"?>
<svg id="Layer_2" data-name="Layer 2" xmlns="http://www.w3.org/2000/svg" viewBox="0 0 238 110.97">
  <defs>
    <style>
      .cls-1, .cls-2, .cls-3 {
        fill: #5b47fb;
      }

      .cls-1, .cls-4 {
        font-family: Mont-HeavyDEMO, Mont;
        font-size: 21.68px;
        font-weight: 800;
      }

      .cls-5, .cls-4 {
        fill: #ed1c24;
      }

      .cls-6 {
        letter-spacing: -.02em;
      }

      .cls-7 {
        letter-spacing: -.02em;
      }

      .cls-8 {
        letter-spacing: 0em;
      }

      .cls-3 {
        font-family: Poppins-Regular, Poppins;
        font-size: 6.85px;
        letter-spacing: .12em;
      }

      .cls-9 {
        letter-spacing: 0em;
      }

      .cls-10 {
        letter-spacing: 0em;
      }
    </style>
  </defs>
  <g id="Layer_1-2" data-name="Layer 1">
    <path class="cls-2" d="M110.83,35.49c-1.73-6.3-6.64-10.96-12.97-12.52-.78-.19-2.31-.03-2.63-.23-.15-.09-1.15-2.41-1.65-3.1-3.71-5.19-8.17-7.45-14.56-7.89-13.93-.95-28.89.81-42.93-.06L20.86.26c-5.39-2.14-3.31,9.32-3.68,11.89-8.21-.39-15.11,6.13-16.65,13.98.8,15.19-1.41,32.11-.11,47.1.63,7.31,6.35,13.05,13.23,14.92.76.21,1.64-.08,2.39.28.48.23,3.18,4.78,4.36,5.91,3.02,2.88,7.26,4.62,11.41,4.95,14.06,1.1,29.48-.92,43.69.06,3.36,1.43,13.38,11.44,16.12,11.6,4.58.28,2.21-8.96,2.82-11.67,8.09-.32,16.02-6.74,16.74-15.03,1.33-15.43-.76-33.17-.34-48.77ZM91.36,72.45c-.56,5.6-5.19,10.38-10.82,10.86-15.9,1.37-33.75-1.06-49.86-.01-6.23-1.06-9.94-5.83-10.46-11.99-.88-10.46.6-22.09.03-32.68.81-5.49,4.57-9.87,10.14-10.79,16.02.98,34.37-1.65,50.12-.1,6.04.6,10.35,5.65,10.86,11.59.91,10.56-.7,22.41-.02,33.11Z"/>
    <rect class="cls-5" x="70.06" y="43.27" width="9.89" height="30.91"/>
    <rect class="cls-5" x="51.03" y="52.1" width="9.88" height="22.08"/>
    <path class="cls-5" d="M41.52,62.19v11.98h-9.32s-.57-.44-.57-.47v-11.51h9.89Z"/>
    <text class="cls-1" transform="translate(120.02 48.92) scale(.96 1)"><tspan class="cls-10" x="0" y="0">legislati</tspan><tspan class="cls-6" x="91.95" y="0">v</tspan><tspan class="cls-10" x="104.68" y="0">e</tspan></text>
    <text class="cls-1" transform="translate(118.77 69.52) scale(.96 1)"><tspan class="cls-10" x="0" y="0">anal</tspan><tspan class="cls-7" x="50.9" y="0">y</tspan><tspan class="cls-10" x="63.97" y="0">sis</tspan></text>
    <text class="cls-4" transform="translate(119.19 90.13) scale(.96 1)"><tspan class="cls-10" x="0" y="0">dashboa</tspan><tspan class="cls-8" x="100.26" y="0">r</tspan><tspan class="cls-9" x="109.29" y="0">d</tspan></text>
    <circle class="cls-5" cx="36.57" cy="56.22" r="4.92"/>
    <circle class="cls-5" cx="56" cy="45.83" r="4.92"/>
    <circle class="cls-5" cx="74.95" cy="37.1" r="4.92"/>
    <text class="cls-3" transform="translate(121.26 100.07) scale(.96 1)"><tspan x="0" y="0">www.lad.com</tspan></text>
    <rect class="cls-2" x="174.65" y="94.7" width="62.42" height="6.63" rx=".99" ry=".99"/>
  </g>
</svg>